<svg xmlns="http://www.w3.org/2000/svg" viewBox="0 0 1500.03 849.41"><defs><style>.cls-1,.cls-2{fill:#fff;}.cls-1{fill-rule:evenodd;}</style></defs><title>资源 3</title><g id="图层_2" data-name="图层 2"><g id="_U_56FE_U_5C42_1" data-name="_U+56FE_U+5C42 1"><path class="cls-1" d="M1436,384.66l61.61,103.84,2.45,1-.91,1.57.26.44h-.51l-55.77,96.29-1.61-.67v2h-420V589l-.46.17-33.57-52.58-29.37,50.73v1.85H525.73l-.74.53L356.48,308.94l-44.29,74.23,65,105.3h1.08L319.61,589.15l-249,.05v0H61l-1.4.53-.32-.53H58.15l.58-1L1.8,493.57,0,492,285.36.45,285.09,0H716.71L748.9,53.77,779.31,1l.82.35L779.34,0h420.78l67.64,109.37h-2.06l.23.09-48.88,84.83H1321l63.3,105h-1.38l-49.17,85.34Zm-1.64,189.51,47.86-82.64H1085l-48.86,82.64Zm-485.28,0,47.86-82.64H590.08l-49.69,82.64ZM646.18,384.66H895.27L754.82,151.52l-34,56.62-1.29-.53H541ZM360.29,488.47l-56.41-91.36-54.5,91.35ZM19,491.18l48.87,81.24L286.16,197.84l4-7,0,0,6.55-11.22.55.32.42-.73L529.15,564.91,576.58,486,294.78,16.17ZM482.67,109.37l49.49,83.33h181.1l50.09-83.33ZM757.39,68l24.79,41.41-2.3.47L764.15,136,913.84,384.66h37.07l61.66,104,2.18.91-.81,1.4.36.61h-.71l-16.92,29.21,27.12,42.8L1070.22,485,788.12,14.63Zm491.93,41.41H976.92l50,84.92h173.44Zm116.92,190H1089.75l50.69,85.34h176.63Z"/><path class="cls-2" d="M584.08,715.21a42.63,42.63,0,0,0-24.89,8v-45h-18v78.17c0,.62,0,1.25,0,1.87V812.4h0v6h18v-6h0V757.78a24.45,24.45,0,1,1,48.89,0v60.64H627V758.21A42.94,42.94,0,0,0,584.08,715.21Z"/><rect class="cls-2" x="334.23" y="755.64" width="52.99" height="17.8"/><path class="cls-2" d="M183.56,715.21a42.6,42.6,0,0,0-24.92,8v-8H140.69v42.32c0,.22,0,.45,0,.67v53.33h0v6h17.95v-6h.05V756.92a24.44,24.44,0,1,1,48.88,0v60.64h18.87V758.21A42.94,42.94,0,0,0,183.56,715.21Z"/><path class="cls-2" d="M508.74,779.16c-10.91,13-24.18,19.38-40.58,19.38-14.68,0-26.55-4.67-36.27-14.29s-14.4-21.29-14.4-35.8c0-14.16,4.83-25.84,14.75-35.72S453.71,698,467.48,698c16.93,0,30.41,6.65,41.2,20.35l2.18,2.77,15.07-11.84-2-2.87a62.68,62.68,0,0,0-24.29-20.78,73.15,73.15,0,0,0-32.33-7.18,71.7,71.7,0,0,0-35.5,9,65.55,65.55,0,0,0-25.32,25.08,69.34,69.34,0,0,0-9.13,34.83c0,20.17,6.63,37.12,19.7,50.38s30,20,50.42,20A76.17,76.17,0,0,0,499.57,811a62.45,62.45,0,0,0,24.3-19.77l2.14-2.89-15.07-11.84Z"/><path class="cls-2" d="M62.08,678.25,0,818H21.51l20-45.47H90L110.19,818h21L69.77,678.25ZM50.42,752.49,65.91,717.7l15.37,34.79Z"/><path class="cls-2" d="M278.16,792.54a23.94,23.94,0,0,1-3.83-8.47c-.61-2.44-1.34-7.21-1.34-20.23V732.65h18.63V715.2H273.15V678.42H254.21V715.2H238.13v17.45h16.15v34.68c0,12.42,1.2,20.8,3.65,27.4a34.43,34.43,0,0,0,12.93,16.55,35.23,35.23,0,0,0,20.42,6.29H292V799.25a21.39,21.39,0,0,1-7.67-1.72A15.62,15.62,0,0,1,278.16,792.54Z"/><rect class="cls-2" x="304.12" y="715.2" width="18.94" height="102.83"/><rect class="cls-2" x="303.47" y="678.17" width="19.51" height="23.84"/><polygon class="cls-2" points="1162.45 715.2 1139.79 715.2 1116.38 748.78 1093.66 716.07 1071 716.07 1105.06 765.57 1069.49 818.43 1091.97 818.43 1116.4 782.17 1140.98 818.43 1163.84 818.43 1127.72 765.38 1162.45 715.2"/><path class="cls-2" d="M1360.07,786.66c-6.67,9.22-15.6,13.74-27.13,13.74a27.81,27.81,0,0,1-21-9c-5.14-5.34-8.08-12.07-9-20.49h80.41l-.08-3.67c-.36-16.15-5.33-29.14-14.79-38.62s-21.32-14.28-35.24-14.28a46.26,46.26,0,0,0-35.17,15.41c-9.42,10.16-14.19,22.57-14.19,36.88a52,52,0,0,0,14.1,36.46c9.42,10.17,21.5,15.32,35.93,15.32,20.18,0,35.63-9.9,45.91-29.42l1.22-2.33Zm-26.62-53.79a30.63,30.63,0,0,1,19.6,6.66,27.44,27.44,0,0,1,9.47,14.05h-57.27C1310.39,739.66,1319.65,732.87,1333.45,732.87Z"/><path class="cls-2" d="M1221,714.47a44.62,44.62,0,0,0-32.53,13.31V715.2H1169.7V849.41h18.77V805c9.64,9,20.66,13.61,32.87,13.61,13.73,0,25.65-5.26,35.43-15.64s14.68-23,14.68-37.54c0-14.35-5-25.12-14.88-35.41S1234.71,714.47,1221,714.47Zm22,75.78c-6.49,6.75-13.91,10-22.7,10a30.82,30.82,0,0,1-23.14-9.86c-6.43-6.64-9.57-14.7-9.57-24.66,0-9.72,3.06-16,9.35-22.61a31.87,31.87,0,0,1,46.2.17c6.42,6.77,9.53,13,9.53,22.44A33.72,33.72,0,0,1,1243,790.25Z"/><path class="cls-2" d="M1415.15,720.54v-5.32h-18.08V818.39h0v0h18.71V769.79c0-13,.73-18.65,1.34-21.08a23.9,23.9,0,0,1,3.82-8.48,15.54,15.54,0,0,1,6.21-5,21.08,21.08,0,0,1,7.66-1.73v-18.3l-.74,0A35.22,35.22,0,0,0,1415.15,720.54Z"/><path class="cls-2" d="M1492.37,798.39a15.65,15.65,0,0,1-6.21-5,23.93,23.93,0,0,1-3.82-8.47c-.61-2.44-1.34-8.07-1.34-21.09V732.41h19V715h-18.36V678.18h-18.83V715h-16v17.45h15.44v34.92c0,12.42,1.19,21.66,3.64,28.26a34.45,34.45,0,0,0,12.94,16.55,35.23,35.23,0,0,0,20.42,6.29l.74,0v-18.3A21.29,21.29,0,0,1,1492.37,798.39Z"/><path class="cls-2" d="M837.61,727.49a44,44,0,0,0-32.09-13.15c-13.63,0-25.49,5.17-35.24,15.36a51.47,51.47,0,0,0-14.68,36.72,52.43,52.43,0,0,0,14.56,37c9.7,10.33,21.49,15.56,35,15.56,12.05,0,22.92-4.52,32.43-13.46v12.88H856V715.05H837.61Zm-8.76,63.72c-6.34,6.51-13.7,9.68-22.49,9.68s-16.26-3.29-22.61-10.06a35.11,35.11,0,0,1-.14-47.82,29.48,29.48,0,0,1,22.75-10A29.81,29.81,0,0,1,829,742.71c6.24,6.57,9.28,14.44,9.28,24C838.28,776.7,835.2,784.7,828.85,791.21Z"/><path class="cls-2" d="M719.82,786.66c-6.71,9.7-15.77,14.45-27.54,14.45a27.72,27.72,0,0,1-21-9.07c-5.15-5.39-8.09-12.17-8.95-20.66h80.41l-.09-3.7c-.35-16.29-5.32-29.39-14.78-38.94s-21.33-14.4-35.25-14.4a46.07,46.07,0,0,0-35.16,15.53c-9.42,10.25-14.2,22.77-14.2,37.2a52.73,52.73,0,0,0,14.11,36.76c9.42,10.25,21.5,15.45,35.92,15.45,20.18,0,35.63-10,45.92-29.68l1.53-2.94Zm-27-53.64a30.44,30.44,0,0,1,19.6,6.72,27.6,27.6,0,0,1,9.48,14.17H664.59C669.73,739.87,679,733,692.78,733Z"/><path class="cls-2" d="M913.26,793.4a23.93,23.93,0,0,1-3.82-8.47c-.61-2.44-1.34-8.07-1.34-21.09V733.51h18.23V716.06H907.85V678.42H888.91v37.64H872.83v17.45h16.56v33.82c0,12.42,1.19,21.66,3.64,28.26A34.39,34.39,0,0,0,906,812.14a35.22,35.22,0,0,0,20.41,6.29l.75,0v-18.3a21.29,21.29,0,0,1-7.66-1.72A15.65,15.65,0,0,1,913.26,793.4Z"/><polygon class="cls-2" points="984.9 818.03 1062 818.03 1062 798.31 1004.34 798.31 1004.34 753.66 1062 753.66 1062 734.11 1004.34 734.11 1004.34 697.89 1062.52 697.89 1062.52 678.17 984.9 678.17 984.9 818.03"/></g></g></svg>